{
  "accessors": [
    {
      "bufferView": 2,
      "componentType": 5126,
      "count": 736,
      "max": [
        5.0229997634887695,
        5.2920999526977539,
        34.528301239013672
      ],
      "min": [
        -5.0204000473022461,
        -5.2214999198913574,
        0
      ],
      "type": "VEC3"
    },
    {
      "bufferView": 2,
      "byteOffset": 8832,
      "componentType": 5126,
      "count": 736,
      "max": [
        1,
        1,
        0.99528241157531738
      ],
      "min": [
        -1,
        -1,
        -1
      ],
      "type": "VEC3"
    },
    {
      "bufferView": 3,
      "componentType": 5126,
      "count": 736,
      "max": [
        0.99993413686752319,
        0,
        0.98465853929519653,
        1
      ],
      "min": [
        -1,
        -1,
        -0.7640080451965332,
        -1
      ],
      "type": "VEC4"
    },
    {
      "bufferView": 1,
      "componentType": 5126,
      "count": 736,
      "max": [
        0.88779997825622559,
        0.92180001735687256
      ],
      "min": [
        0.018999999389052391,
        0.041200000792741776
      ],
      "type": "VEC2"
    },
    {
      "bufferView": 0,
      "componentType": 5125,
      "count": 2748,
      "max": [
        735
      ],
      "min": [
        0
      ],
      "type": "SCALAR"
    },
    {
      "bufferView": 2,
      "byteOffset": 17664,
      "componentType": 5126,
      "count": 15405,
      "max": [
        5.5232000350952148,
        5.5198001861572266,
        36.585300445556641
      ],
      "min": [
        -5.523399829864502,
        -5.5271000862121582,
        0
      ],
      "type": "VEC3"
    },
    {
      "bufferView": 2,
      "byteOffset": 202524,
      "componentType": 5126,
      "count": 15405,
      "max": [
        1,
        1,
        0.9989389181137085
      ],
      "min": [
        -1,
        -1,
        -0.85632520914077759
      ],
      "type": "VEC3"
    },
    {
      "bufferView": 3,
      "byteOffset": 11776,
      "componentType": 5126,
      "count": 15405,
      "max": [
        0.99999862909317017,
        0.86219137907028198,
        0.99999552965164185,
        1
      ],
      "min": [
        -1,
        -1,
        -0.99999988079071045,
        -1
      ],
      "type": "VEC4"
    },
    {
      "bufferView": 1,
      "byteOffset": 5888,
      "componentType": 5126,
      "count": 15405,
      "max": [
        0.91250002384185791,
        0.98019999265670776
      ],
      "min": [
        0.018999999389052391,
        0.041200000792741776
      ],
      "type": "VEC2"
    },
    {
      "bufferView": 0,
      "byteOffset": 10992,
      "componentType": 5125,
      "count": 91182,
      "max": [
        15404
      ],
      "min": [
        0
      ],
      "type": "SCALAR"
    }
  ],
  "asset": {
    "extras": {
      "author": "Microsoft (https://sketchfab.com/microsoft)",
      "license": "CC-BY-4.0 (http://creativecommons.org/licenses/by/4.0/)",
      "source": "https://sketchfab.com/models/c002e2aa017d49ae8e6dbd295cca3914",
      "title": "Water Bottle"
    },
    "generator": "Sketchfab-3.29.4-rc2",
    "version": "2.0"
  },
  "bufferViews": [
    {
      "buffer": 0,
      "byteLength": 375720,
      "byteOffset": 0,
      "name": "floatBufferViews",
      "target": 34963
    },
    {
      "buffer": 0,
      "byteLength": 129128,
      "byteOffset": 375720,
      "byteStride": 8,
      "name": "floatBufferViews",
      "target": 34962
    },
    {
      "buffer": 0,
      "byteLength": 387384,
      "byteOffset": 504848,
      "byteStride": 12,
      "name": "floatBufferViews",
      "target": 34962
    },
    {
      "buffer": 0,
      "byteLength": 258256,
      "byteOffset": 892232,
      "byteStride": 16,
      "name": "floatBufferViews",
      "target": 34962
    }
  ],
  "buffers": [
    {
      "byteLength": 1150488,
      "uri": "scene.bin"
    }
  ],
  "images": [
    {
      "uri": "textures/wire_145028177_baseColor.jpg"
    }
  ],
  "materials": [
    {
      "doubleSided": true,
      "emissiveFactor": [
        0,
        0,
        0
      ],
      "name": "wire_145028177",
      "pbrMetallicRoughness": {
        "baseColorFactor": [
          1,
          1,
          1,
          1
        ],
        "baseColorTexture": {
          "index": 0,
          "texCoord": 0
        },
        "metallicFactor": 0,
        "roughnessFactor": 0.59999999999999998
      }
    }
  ],
  "meshes": [
    {
      "primitives": [
        {
          "attributes": {
            "NORMAL": 1,
            "POSITION": 0,
            "TANGENT": 2,
            "TEXCOORD_0": 3
          },
          "indices": 4,
          "material": 0,
          "mode": 4
        }
      ]
    },
    {
      "primitives": [
        {
          "attributes": {
            "NORMAL": 6,
            "POSITION": 5,
            "TANGENT": 7,
            "TEXCOORD_0": 8
          },
          "indices": 9,
          "material": 0,
          "mode": 4
        }
      ]
    }
  ],
  "nodes": [
    {
      "children": [
        1
      ],
      "name": "RootNode (gltf orientation matrix)",
      "rotation": [
        -0.70710678118654746,
        -0,
        -0,
        0.70710678118654757
      ]
    },
    {
      "children": [
        2
      ],
      "name": "RootNode (model correction matrix)"
    },
    {
      "children": [
        3,
        4
      ],
      "name": "119f3cc8adab4152a98a23ebdcb33fdf.obj.cleaner"
    },
    {
      "mesh": 0,
      "name": ""
    },
    {
      "mesh": 1,
      "name": ""
    }
  ],
  "samplers": [
    {
      "magFilter": 9729,
      "minFilter": 9987,
      "wrapS": 10497,
      "wrapT": 10497
    }
  ],
  "scene": 0,
  "scenes": [
    {
      "name": "OSG_Scene",
      "nodes": [
        0
      ]
    }
  ],
  "textures": [
    {
      "sampler": 0,
      "source": 0
    }
  ]
}

