{
    "asset" : {
        "generator" : "Khronos glTF Blender I/O v1.6.16",
        "version" : "2.0"
    },
    "scene" : 0,
    "scenes" : [
        {
            "name" : "Scene",
            "nodes" : [
                5,
                6,
                7,
                8,
                9,
                11,
                12,
                17
            ]
        }
    ],
    "nodes" : [
        {
            "name" : "_rootJoint",
            "rotation" : [
                -0.7071068286895752,
                0,
                0,
                0.7071068286895752
            ]
        },
        {
            "children" : [
                0
            ],
            "name" : "Armature.004"
        },
        {
            "children" : [
                1
            ],
            "name" : "Armature",
            "rotation" : [
                -1,
                0,
                0,
                1.6292050020183524e-07
            ]
        },
        {
            "children" : [
                2
            ],
            "name" : "Collada visual scene group"
        },
        {
            "children" : [
                3
            ],
            "name" : "RootNode (model correction matrix)"
        },
        {
            "children" : [
                4
            ],
            "name" : "RootNode (gltf orientation matrix)",
            "rotation" : [
                -0.7071068286895752,
                0,
                0,
                0.7071068286895752
            ]
        },
        {
            "name" : "Light",
            "rotation" : [
                0.16907575726509094,
                0.7558803558349609,
                -0.27217137813568115,
                0.570947527885437
            ],
            "translation" : [
                4.076245307922363,
                5.903861999511719,
                -1.0054539442062378
            ]
        },
        {
            "name" : "Camera",
            "rotation" : [
                0.483536034822464,
                0.33687159419059753,
                -0.20870360732078552,
                0.7804827094078064
            ],
            "translation" : [
                7.358891487121582,
                4.958309173583984,
                6.925790786743164
            ]
        },
        {
            "name" : "Light.001",
            "rotation" : [
                0.16907574236392975,
                0.7558803558349609,
                -0.27217134833335876,
                0.570947527885437
            ],
            "translation" : [
                4.076245307922363,
                5.903861999511719,
                -1.0054539442062378
            ]
        },
        {
            "name" : "Camera.001",
            "rotation" : [
                0.483536034822464,
                0.33687159419059753,
                -0.20870360732078552,
                0.7804827094078064
            ],
            "translation" : [
                7.358891487121582,
                4.958309173583984,
                6.925790786743164
            ]
        },
        {
            "mesh" : 0,
            "name" : "Mesh_0_002",
            "rotation" : [
                0.5,
                -0.5,
                -0.4999999701976776,
                0.5
            ],
            "translation" : [
                -8.503196716308594,
                0,
                0
            ]
        },
        {
            "children" : [
                10
            ],
            "name" : "Armature_001",
            "rotation" : [
                0,
                0,
                0.7071067094802856,
                0.7071068286895752
            ],
            "translation" : [
                0,
                8.503196716308594,
                0
            ]
        },
        {
            "mesh" : 1,
            "name" : "Grid"
        },
        {
            "name" : "Armature_004"
        },
        {
            "children" : [
                13
            ],
            "name" : "Armature.001",
            "rotation" : [
                -1,
                0,
                0,
                1.9470718370939721e-07
            ]
        },
        {
            "children" : [
                14
            ],
            "name" : "Collada_visual_scene_group"
        },
        {
            "children" : [
                15
            ],
            "name" : "RootNode_(model_correction_matrix)"
        },
        {
            "children" : [
                16
            ],
            "name" : "RootNode_(gltf_orientation_matrix)",
            "rotation" : [
                -0.7071068286895752,
                0,
                0,
                0.7071068286895752
            ]
        }
    ],
    "materials" : [
        {
            "doubleSided" : true,
            "name" : "Material.003",
            "pbrMetallicRoughness" : {
                "baseColorFactor" : [
                    0.800000011920929,
                    0.800000011920929,
                    0.800000011920929,
                    1
                ],
                "metallicFactor" : 0,
                "roughnessFactor" : 0.5
            }
        },
        {
            "doubleSided" : true,
            "name" : "Material.002",
            "pbrMetallicRoughness" : {
                "baseColorFactor" : [
                    0.800000011920929,
                    0.800000011920929,
                    0.800000011920929,
                    1
                ],
                "metallicFactor" : 0,
                "roughnessFactor" : 0.5
            }
        }
    ],
    "meshes" : [
        {
            "name" : "Mesh_0_002",
            "primitives" : [
                {
                    "attributes" : {
                        "POSITION" : 0,
                        "NORMAL" : 1,
                        "TEXCOORD_0" : 2
                    },
                    "indices" : 3,
                    "material" : 0
                }
            ]
        },
        {
            "name" : "Grid.001",
            "primitives" : [
                {
                    "attributes" : {
                        "POSITION" : 4,
                        "NORMAL" : 5,
                        "TEXCOORD_0" : 6
                    },
                    "indices" : 7,
                    "material" : 1
                }
            ]
        }
    ],
    "accessors" : [
        {
            "bufferView" : 0,
            "componentType" : 5126,
            "count" : 2048,
            "max" : [
                8.290468215942383,
                3.8900201320648193,
                0.034180641174316406
            ],
            "min" : [
                -8.29037857055664,
                -3.1762282848358154,
                -15.394798278808594
            ],
            "type" : "VEC3"
        },
        {
            "bufferView" : 1,
            "componentType" : 5126,
            "count" : 2048,
            "type" : "VEC3"
        },
        {
            "bufferView" : 2,
            "componentType" : 5126,
            "count" : 2048,
            "type" : "VEC2"
        },
        {
            "bufferView" : 3,
            "componentType" : 5123,
            "count" : 9318,
            "type" : "SCALAR"
        },
        {
            "bufferView" : 4,
            "componentType" : 5126,
            "count" : 11012,
            "max" : [
                14.424999237060547,
                0.4951704144477844,
                14.424999237060547
            ],
            "min" : [
                -14.424999237060547,
                0,
                -14.424999237060547
            ],
            "type" : "VEC3"
        },
        {
            "bufferView" : 5,
            "componentType" : 5126,
            "count" : 11012,
            "type" : "VEC3"
        },
        {
            "bufferView" : 6,
            "componentType" : 5126,
            "count" : 11012,
            "type" : "VEC2"
        },
        {
            "bufferView" : 7,
            "componentType" : 5123,
            "count" : 60000,
            "type" : "SCALAR"
        }
    ],
    "bufferViews" : [
        {
            "buffer" : 0,
            "byteLength" : 24576,
            "byteOffset" : 0
        },
        {
            "buffer" : 0,
            "byteLength" : 24576,
            "byteOffset" : 24576
        },
        {
            "buffer" : 0,
            "byteLength" : 16384,
            "byteOffset" : 49152
        },
        {
            "buffer" : 0,
            "byteLength" : 18636,
            "byteOffset" : 65536
        },
        {
            "buffer" : 0,
            "byteLength" : 132144,
            "byteOffset" : 84172
        },
        {
            "buffer" : 0,
            "byteLength" : 132144,
            "byteOffset" : 216316
        },
        {
            "buffer" : 0,
            "byteLength" : 88096,
            "byteOffset" : 348460
        },
        {
            "buffer" : 0,
            "byteLength" : 120000,
            "byteOffset" : 436556
        }
    ],
    "buffers" : [
        {
            "byteLength" : 556556,
            "uri" : "data:application/octet-stream;base64,"
        }
    ]
}
